STARTFONT 2.1
COMMENT Exported by Fony v1.4.7
FONT 12X18KB
SIZE 18 96 96
FONTBOUNDINGBOX 12 17 0 -3
STARTPROPERTIES 6
COPYRIGHT "Created by kimsoonsung, 2016."
RESOLUTION_X 96
RESOLUTION_Y 96
FONT_ASCENT 15
FONT_DESCENT 3
DEFAULT_CHAR 31
ENDPROPERTIES
CHARS 256
STARTCHAR 000
ENCODING 0
SWIDTH 864 0
DWIDTH 12 0
BBX 0 0 0 0
BITMAP
ENDCHAR
STARTCHAR 001
ENCODING 1
SWIDTH 864 0
DWIDTH 12 0
BBX 0 0 0 0
BITMAP
ENDCHAR
STARTCHAR 002
ENCODING 2
SWIDTH 864 0
DWIDTH 12 0
BBX 12 17 0 -3
BITMAP
FDF0
FDF0
FDF0
0000
EFF0
EFF0
EFF0
EFF0
0000
FDF0
FDF0
FDF0
0000
EFF0
EFF0
EFF0
EFF0
ENDCHAR
STARTCHAR 003
ENCODING 3
SWIDTH 864 0
DWIDTH 12 0
BBX 0 0 0 0
BITMAP
ENDCHAR
STARTCHAR 004
ENCODING 4
SWIDTH 864 0
DWIDTH 12 0
BBX 0 0 0 0
BITMAP
ENDCHAR
STARTCHAR 005
ENCODING 5
SWIDTH 864 0
DWIDTH 12 0
BBX 0 0 0 0
BITMAP
ENDCHAR
STARTCHAR 006
ENCODING 6
SWIDTH 864 0
DWIDTH 12 0
BBX 0 0 0 0
BITMAP
ENDCHAR
STARTCHAR 007
ENCODING 7
SWIDTH 864 0
DWIDTH 12 0
BBX 0 0 0 0
BITMAP
ENDCHAR
STARTCHAR 008
ENCODING 8
SWIDTH 864 0
DWIDTH 12 0
BBX 0 0 0 0
BITMAP
ENDCHAR
STARTCHAR 009
ENCODING 9
SWIDTH 864 0
DWIDTH 12 0
BBX 0 0 0 0
BITMAP
ENDCHAR
STARTCHAR 010
ENCODING 10
SWIDTH 864 0
DWIDTH 12 0
BBX 0 0 0 0
BITMAP
ENDCHAR
STARTCHAR 011
ENCODING 11
SWIDTH 864 0
DWIDTH 12 0
BBX 0 0 0 0
BITMAP
ENDCHAR
STARTCHAR 012
ENCODING 12
SWIDTH 864 0
DWIDTH 12 0
BBX 0 0 0 0
BITMAP
ENDCHAR
STARTCHAR 013
ENCODING 13
SWIDTH 864 0
DWIDTH 12 0
BBX 0 0 0 0
BITMAP
ENDCHAR
STARTCHAR 014
ENCODING 14
SWIDTH 864 0
DWIDTH 12 0
BBX 0 0 0 0
BITMAP
ENDCHAR
STARTCHAR 015
ENCODING 15
SWIDTH 864 0
DWIDTH 12 0
BBX 0 0 0 0
BITMAP
ENDCHAR
STARTCHAR 016
ENCODING 16
SWIDTH 864 0
DWIDTH 12 0
BBX 0 0 0 0
BITMAP
ENDCHAR
STARTCHAR 017
ENCODING 17
SWIDTH 864 0
DWIDTH 12 0
BBX 0 0 0 0
BITMAP
ENDCHAR
STARTCHAR 018
ENCODING 18
SWIDTH 864 0
DWIDTH 12 0
BBX 0 0 0 0
BITMAP
ENDCHAR
STARTCHAR 019
ENCODING 19
SWIDTH 864 0
DWIDTH 12 0
BBX 0 0 0 0
BITMAP
ENDCHAR
STARTCHAR 020
ENCODING 20
SWIDTH 864 0
DWIDTH 12 0
BBX 0 0 0 0
BITMAP
ENDCHAR
STARTCHAR 021
ENCODING 21
SWIDTH 864 0
DWIDTH 12 0
BBX 0 0 0 0
BITMAP
ENDCHAR
STARTCHAR 022
ENCODING 22
SWIDTH 864 0
DWIDTH 12 0
BBX 0 0 0 0
BITMAP
ENDCHAR
STARTCHAR 023
ENCODING 23
SWIDTH 864 0
DWIDTH 12 0
BBX 0 0 0 0
BITMAP
ENDCHAR
STARTCHAR 024
ENCODING 24
SWIDTH 864 0
DWIDTH 12 0
BBX 0 0 0 0
BITMAP
ENDCHAR
STARTCHAR 025
ENCODING 25
SWIDTH 864 0
DWIDTH 12 0
BBX 0 0 0 0
BITMAP
ENDCHAR
STARTCHAR 026
ENCODING 26
SWIDTH 864 0
DWIDTH 12 0
BBX 0 0 0 0
BITMAP
ENDCHAR
STARTCHAR 027
ENCODING 27
SWIDTH 864 0
DWIDTH 12 0
BBX 0 0 0 0
BITMAP
ENDCHAR
STARTCHAR 028
ENCODING 28
SWIDTH 864 0
DWIDTH 12 0
BBX 0 0 0 0
BITMAP
ENDCHAR
STARTCHAR 029
ENCODING 29
SWIDTH 864 0
DWIDTH 12 0
BBX 0 0 0 0
BITMAP
ENDCHAR
STARTCHAR 030
ENCODING 30
SWIDTH 864 0
DWIDTH 12 0
BBX 0 0 0 0
BITMAP
ENDCHAR
STARTCHAR 031
ENCODING 31
SWIDTH 864 0
DWIDTH 12 0
BBX 0 0 0 0
BITMAP
ENDCHAR
STARTCHAR 032
ENCODING 32
SWIDTH 864 0
DWIDTH 12 0
BBX 0 0 0 0
BITMAP
ENDCHAR
STARTCHAR 033
ENCODING 33
SWIDTH 864 0
DWIDTH 12 0
BBX 4 13 4 0
BITMAP
60
F0
F0
F0
F0
60
60
60
00
60
F0
F0
60
ENDCHAR
STARTCHAR 034
ENCODING 34
SWIDTH 864 0
DWIDTH 12 0
BBX 9 5 1 8
BITMAP
6300
F780
F780
7380
E700
ENDCHAR
STARTCHAR 035
ENCODING 35
SWIDTH 864 0
DWIDTH 12 0
BBX 10 12 1 0
BITMAP
3300
3300
3300
FFC0
FFC0
3300
3300
FFC0
FFC0
3300
3300
3300
ENDCHAR
STARTCHAR 036
ENCODING 36
SWIDTH 864 0
DWIDTH 12 0
BBX 9 16 1 -2
BITMAP
0600
0600
3E00
7F00
ED80
EC80
EC00
7E00
3F00
1B80
9B80
DB80
7F00
3E00
3000
3000
ENDCHAR
STARTCHAR 037
ENCODING 37
SWIDTH 864 0
DWIDTH 12 0
BBX 10 13 1 0
BITMAP
7040
E8C0
E9C0
FBC0
7780
0F00
1E00
3C00
7B80
F7C0
E5C0
C5C0
8380
ENDCHAR
STARTCHAR 038
ENCODING 38
SWIDTH 864 0
DWIDTH 12 0
BBX 10 13 1 0
BITMAP
1C00
3E00
6300
6300
7700
3E00
7C40
EEC0
C7C0
C380
E780
7EC0
3C40
ENDCHAR
STARTCHAR 039
ENCODING 39
SWIDTH 864 0
DWIDTH 12 0
BBX 4 5 4 8
BITMAP
60
F0
F0
70
E0
ENDCHAR
STARTCHAR 040
ENCODING 40
SWIDTH 864 0
DWIDTH 12 0
BBX 6 15 3 -1
BITMAP
1C
38
70
70
E0
E0
E0
E0
E0
E0
E0
70
70
38
1C
ENDCHAR
STARTCHAR 041
ENCODING 41
SWIDTH 864 0
DWIDTH 12 0
BBX 6 15 3 -1
BITMAP
E0
70
38
38
1C
1C
1C
1C
1C
1C
1C
38
38
70
E0
ENDCHAR
STARTCHAR 042
ENCODING 42
SWIDTH 864 0
DWIDTH 12 0
BBX 11 17 0 -2
BITMAP
8020
C060
E0E0
F1E0
7BC0
3F80
1F00
FFE0
FFE0
FFE0
1F00
3F80
7BC0
F1E0
E0E0
C060
8020
ENDCHAR
STARTCHAR 043
ENCODING 43
SWIDTH 864 0
DWIDTH 12 0
BBX 11 13 0 -1
BITMAP
0E00
0E00
0E00
0E00
0E00
FFE0
FFE0
FFE0
0E00
0E00
0E00
0E00
0E00
ENDCHAR
STARTCHAR 044
ENCODING 44
SWIDTH 864 0
DWIDTH 12 0
BBX 4 5 4 -1
BITMAP
60
F0
F0
70
E0
ENDCHAR
STARTCHAR 045
ENCODING 45
SWIDTH 864 0
DWIDTH 12 0
BBX 10 3 1 4
BITMAP
FFC0
FFC0
FFC0
ENDCHAR
STARTCHAR 046
ENCODING 46
SWIDTH 864 0
DWIDTH 12 0
BBX 6 6 3 -1
BITMAP
78
FC
FC
F4
EC
78
ENDCHAR
STARTCHAR 047
ENCODING 47
SWIDTH 864 0
DWIDTH 12 0
BBX 10 13 1 -1
BITMAP
0040
00C0
01C0
03C0
0780
0F00
1E00
3C00
7800
F000
E000
C000
8000
ENDCHAR
STARTCHAR 048
ENCODING 48
SWIDTH 864 0
DWIDTH 12 0
BBX 9 13 1 0
BITMAP
3E00
7F00
F780
E380
E380
EF80
FF80
FB80
E380
E380
F780
7F00
3E00
ENDCHAR
STARTCHAR 049
ENCODING 49
SWIDTH 864 0
DWIDTH 12 0
BBX 9 13 1 0
BITMAP
1C00
3C00
7C00
FC00
1C00
1C00
1C00
1C00
1C00
1C00
1C00
FF80
FF80
ENDCHAR
STARTCHAR 050
ENCODING 50
SWIDTH 864 0
DWIDTH 12 0
BBX 9 13 1 0
BITMAP
3E00
7F00
F780
E380
E380
0780
0F00
1E00
3C00
7800
F000
FF80
FF80
ENDCHAR
STARTCHAR 051
ENCODING 51
SWIDTH 864 0
DWIDTH 12 0
BBX 9 13 1 0
BITMAP
FF80
FF80
0700
0E00
1C00
3E00
3F00
0780
0380
C380
E780
FF00
7E00
ENDCHAR
STARTCHAR 052
ENCODING 52
SWIDTH 864 0
DWIDTH 12 0
BBX 11 13 0 0
BITMAP
0180
0380
0780
0F80
1F80
3B80
7380
FFE0
FFE0
0380
0380
0380
0380
ENDCHAR
STARTCHAR 053
ENCODING 53
SWIDTH 864 0
DWIDTH 12 0
BBX 9 13 1 0
BITMAP
FF80
FF80
E000
E000
E000
FE00
FF00
0780
0380
E380
E780
FF00
7E00
ENDCHAR
STARTCHAR 054
ENCODING 54
SWIDTH 864 0
DWIDTH 12 0
BBX 9 13 1 0
BITMAP
3F00
7F80
F380
E380
E000
FE00
FF00
F780
E380
E380
F780
7F00
3E00
ENDCHAR
STARTCHAR 055
ENCODING 55
SWIDTH 864 0
DWIDTH 12 0
BBX 9 13 1 0
BITMAP
FF80
FF80
E380
E380
0380
0700
0700
0E00
0E00
1C00
1C00
3800
3800
ENDCHAR
STARTCHAR 056
ENCODING 56
SWIDTH 864 0
DWIDTH 12 0
BBX 9 13 1 0
BITMAP
3E00
7F00
E380
E380
E380
7F00
3E00
7F00
E380
E380
E380
7F00
3E00
ENDCHAR
STARTCHAR 057
ENCODING 57
SWIDTH 864 0
DWIDTH 12 0
BBX 9 13 1 0
BITMAP
3E00
7F00
F780
E380
E380
F780
7F80
3F80
0380
E380
E780
FF00
7E00
ENDCHAR
STARTCHAR 058
ENCODING 58
SWIDTH 864 0
DWIDTH 12 0
BBX 4 11 4 0
BITMAP
60
F0
F0
60
00
00
00
60
F0
F0
60
ENDCHAR
STARTCHAR 059
ENCODING 59
SWIDTH 864 0
DWIDTH 12 0
BBX 4 12 4 -1
BITMAP
60
F0
F0
60
00
00
00
60
F0
F0
70
E0
ENDCHAR
STARTCHAR 060
ENCODING 60
SWIDTH 864 0
DWIDTH 12 0
BBX 10 13 1 0
BITMAP
03C0
0780
0F00
1E00
3C00
7800
F000
7800
3C00
1E00
0F00
0780
03C0
ENDCHAR
STARTCHAR 061
ENCODING 61
SWIDTH 864 0
DWIDTH 12 0
BBX 8 8 2 2
BITMAP
FF
FF
FF
00
00
FF
FF
FF
ENDCHAR
STARTCHAR 062
ENCODING 62
SWIDTH 864 0
DWIDTH 12 0
BBX 10 13 1 0
BITMAP
F000
7800
3C00
1E00
0F00
0780
03C0
0780
0F00
1E00
3C00
7800
F000
ENDCHAR
STARTCHAR 063
ENCODING 63
SWIDTH 864 0
DWIDTH 12 0
BBX 9 13 1 0
BITMAP
7F00
FF80
E380
E380
E380
0700
0E00
1C00
1C00
1C00
0000
1C00
1C00
ENDCHAR
STARTCHAR 064
ENCODING 64
SWIDTH 864 0
DWIDTH 12 0
BBX 10 17 1 -3
BITMAP
1200
3680
7F80
FFC0
C0C0
D2C0
D2C0
D2C0
C0C0
FFC0
FFC0
E1C0
7F80
3F00
3F00
7F80
FFC0
ENDCHAR
STARTCHAR 065
ENCODING 65
SWIDTH 864 0
DWIDTH 12 0
BBX 9 13 1 0
BITMAP
0800
1C00
3E00
7700
E380
E380
E380
FF80
FF80
E380
E380
E380
E380
ENDCHAR
STARTCHAR 066
ENCODING 66
SWIDTH 864 0
DWIDTH 12 0
BBX 9 13 1 0
BITMAP
FE00
FF00
E380
E380
E380
FF00
FF00
E380
E380
E380
E380
FF00
FE00
ENDCHAR
STARTCHAR 067
ENCODING 67
SWIDTH 864 0
DWIDTH 12 0
BBX 9 13 1 0
BITMAP
3F00
7F80
F380
E180
E000
E000
E000
E000
E000
E180
F380
7F80
3F00
ENDCHAR
STARTCHAR 068
ENCODING 68
SWIDTH 864 0
DWIDTH 12 0
BBX 9 13 1 0
BITMAP
FE00
FF00
E780
E380
E380
E380
E380
E380
E380
E380
E780
FF00
FE00
ENDCHAR
STARTCHAR 069
ENCODING 69
SWIDTH 864 0
DWIDTH 12 0
BBX 9 13 1 0
BITMAP
FF80
FF80
E000
E000
E000
FE00
FE00
E000
E000
E000
E000
FF80
FF80
ENDCHAR
STARTCHAR 070
ENCODING 70
SWIDTH 864 0
DWIDTH 12 0
BBX 9 13 1 0
BITMAP
FF80
FF80
E000
E000
E000
E000
FE00
FE00
E000
E000
E000
E000
E000
ENDCHAR
STARTCHAR 071
ENCODING 71
SWIDTH 864 0
DWIDTH 12 0
BBX 9 13 1 0
BITMAP
3E00
7F00
F780
E380
E380
E000
EF80
EF80
E380
E380
F780
7F00
3E00
ENDCHAR
STARTCHAR 072
ENCODING 72
SWIDTH 864 0
DWIDTH 12 0
BBX 10 13 1 0
BITMAP
E1C0
E1C0
E1C0
E1C0
E1C0
FFC0
FFC0
E1C0
E1C0
E1C0
E1C0
E1C0
E1C0
ENDCHAR
STARTCHAR 073
ENCODING 73
SWIDTH 864 0
DWIDTH 12 0
BBX 7 13 2 0
BITMAP
FE
FE
38
38
38
38
38
38
38
38
38
FE
FE
ENDCHAR
STARTCHAR 074
ENCODING 74
SWIDTH 864 0
DWIDTH 12 0
BBX 9 13 1 0
BITMAP
3F80
3F80
0700
0700
0700
0700
0700
E700
E700
E700
E700
7E00
3C00
ENDCHAR
STARTCHAR 075
ENCODING 75
SWIDTH 864 0
DWIDTH 12 0
BBX 10 13 1 0
BITMAP
E3C0
E780
EF00
FE00
FC00
F800
F000
F800
FC00
FE00
EF00
E780
E3C0
ENDCHAR
STARTCHAR 076
ENCODING 76
SWIDTH 864 0
DWIDTH 12 0
BBX 9 13 1 0
BITMAP
E000
E000
E000
E000
E000
E000
E000
E000
E000
E000
E000
FF80
FF80
ENDCHAR
STARTCHAR 077
ENCODING 77
SWIDTH 864 0
DWIDTH 12 0
BBX 10 13 1 0
BITMAP
C0C0
E1C0
F3C0
FFC0
FFC0
EDC0
EDC0
EDC0
EDC0
EDC0
EDC0
E1C0
E1C0
ENDCHAR
STARTCHAR 078
ENCODING 78
SWIDTH 864 0
DWIDTH 12 0
BBX 10 13 1 0
BITMAP
E1C0
E1C0
F1C0
F9C0
F9C0
FDC0
EDC0
EFC0
E7C0
E7C0
E3C0
E1C0
E1C0
ENDCHAR
STARTCHAR 079
ENCODING 79
SWIDTH 864 0
DWIDTH 12 0
BBX 10 13 1 0
BITMAP
3F00
7F80
7380
E1C0
E1C0
E1C0
E1C0
E1C0
E1C0
E1C0
7380
7F80
3F00
ENDCHAR
STARTCHAR 080
ENCODING 80
SWIDTH 864 0
DWIDTH 12 0
BBX 9 13 1 0
BITMAP
FE00
FF00
E780
E380
E380
E780
FF00
FE00
E000
E000
E000
E000
E000
ENDCHAR
STARTCHAR 081
ENCODING 81
SWIDTH 864 0
DWIDTH 12 0
BBX 10 14 1 -1
BITMAP
3F00
7F80
7380
E1C0
E1C0
E1C0
EDC0
EDC0
EDC0
E7C0
7780
7F80
3FC0
01C0
ENDCHAR
STARTCHAR 082
ENCODING 82
SWIDTH 864 0
DWIDTH 12 0
BBX 10 13 1 0
BITMAP
FE00
FF00
E780
E380
E380
E780
FF00
FE00
FC00
FE00
EF00
E780
E3C0
ENDCHAR
STARTCHAR 083
ENCODING 83
SWIDTH 864 0
DWIDTH 12 0
BBX 9 13 1 0
BITMAP
3E00
7F00
F780
E380
E000
FE00
7F00
3F80
0380
E380
F780
7F00
3E00
ENDCHAR
STARTCHAR 084
ENCODING 84
SWIDTH 864 0
DWIDTH 12 0
BBX 9 13 1 0
BITMAP
FF80
FF80
1C00
1C00
1C00
1C00
1C00
1C00
1C00
1C00
1C00
1C00
1C00
ENDCHAR
STARTCHAR 085
ENCODING 85
SWIDTH 864 0
DWIDTH 12 0
BBX 9 13 1 0
BITMAP
E380
E380
E380
E380
E380
E380
E380
E380
E380
E380
F780
7F00
3E00
ENDCHAR
STARTCHAR 086
ENCODING 86
SWIDTH 864 0
DWIDTH 12 0
BBX 9 13 1 0
BITMAP
E380
E380
E380
E380
7700
7700
7700
3E00
3E00
3E00
1C00
1C00
0800
ENDCHAR
STARTCHAR 087
ENCODING 87
SWIDTH 864 0
DWIDTH 12 0
BBX 10 13 1 0
BITMAP
E1C0
E1C0
EDC0
EDC0
EDC0
EDC0
EDC0
EDC0
FFC0
FFC0
F3C0
E1C0
C0C0
ENDCHAR
STARTCHAR 088
ENCODING 88
SWIDTH 864 0
DWIDTH 12 0
BBX 9 13 1 0
BITMAP
8080
C180
E380
F780
7F00
3E00
1C00
3E00
7F00
F780
E380
C180
8080
ENDCHAR
STARTCHAR 089
ENCODING 89
SWIDTH 864 0
DWIDTH 12 0
BBX 11 13 0 0
BITMAP
E0E0
E0E0
71C0
71C0
3B80
3F80
1F00
1F00
0E00
0E00
0E00
0E00
0E00
ENDCHAR
STARTCHAR 090
ENCODING 90
SWIDTH 864 0
DWIDTH 12 0
BBX 9 13 1 0
BITMAP
FF80
FF80
0380
0780
0F00
1E00
3C00
7800
F000
E000
E000
FF80
FF80
ENDCHAR
STARTCHAR 091
ENCODING 91
SWIDTH 864 0
DWIDTH 12 0
BBX 7 14 2 -1
BITMAP
FE
FE
E0
E0
E0
E0
E0
E0
E0
E0
E0
E0
FE
FE
ENDCHAR
STARTCHAR 092
ENCODING 92
SWIDTH 864 0
DWIDTH 12 0
BBX 10 13 1 -1
BITMAP
8000
C000
E000
F000
7800
3C00
1E00
0F00
0780
03C0
01C0
00C0
0040
ENDCHAR
STARTCHAR 093
ENCODING 93
SWIDTH 864 0
DWIDTH 12 0
BBX 7 14 2 -1
BITMAP
FE
FE
0E
0E
0E
0E
0E
0E
0E
0E
0E
0E
FE
FE
ENDCHAR
STARTCHAR 094
ENCODING 94
SWIDTH 864 0
DWIDTH 12 0
BBX 10 14 1 -1
BITMAP
0C00
1E00
3F00
7F80
F3C0
E1C0
CCC0
9E40
3F00
7F80
F3C0
E1C0
C0C0
8040
ENDCHAR
STARTCHAR 095
ENCODING 95
SWIDTH 864 0
DWIDTH 12 0
BBX 12 3 0 -1
BITMAP
FFF0
FFF0
FFF0
ENDCHAR
STARTCHAR 096
ENCODING 96
SWIDTH 864 0
DWIDTH 12 0
BBX 4 5 4 8
BITMAP
60
F0
F0
E0
70
ENDCHAR
STARTCHAR 097
ENCODING 97
SWIDTH 864 0
DWIDTH 12 0
BBX 9 9 1 0
BITMAP
7F00
7F80
0380
7F80
FF80
E380
E380
FF80
7B80
ENDCHAR
STARTCHAR 098
ENCODING 98
SWIDTH 864 0
DWIDTH 12 0
BBX 9 13 1 0
BITMAP
E000
E000
E000
E000
EF00
FF80
E380
E380
E380
E380
F380
FF80
EF00
ENDCHAR
STARTCHAR 099
ENCODING 99
SWIDTH 864 0
DWIDTH 12 0
BBX 9 9 1 0
BITMAP
3F00
7F80
F180
E000
E000
E000
F180
7F80
3F00
ENDCHAR
STARTCHAR 100
ENCODING 100
SWIDTH 864 0
DWIDTH 12 0
BBX 9 13 1 0
BITMAP
0380
0380
0380
0380
7B80
FF80
E380
E380
E380
E380
E780
FF80
7B80
ENDCHAR
STARTCHAR 101
ENCODING 101
SWIDTH 864 0
DWIDTH 12 0
BBX 9 9 1 0
BITMAP
3E00
7F00
E380
E380
FF80
FF00
E000
7F00
3F00
ENDCHAR
STARTCHAR 102
ENCODING 102
SWIDTH 864 0
DWIDTH 12 0
BBX 9 13 1 0
BITMAP
1F00
3F80
3980
3980
3800
FE00
FE00
3800
3800
3800
3800
3800
3800
ENDCHAR
STARTCHAR 103
ENCODING 103
SWIDTH 864 0
DWIDTH 12 0
BBX 9 12 1 -3
BITMAP
7B80
FF80
E380
E380
E380
E780
FF80
7B80
0380
0380
FF80
FF00
ENDCHAR
STARTCHAR 104
ENCODING 104
SWIDTH 864 0
DWIDTH 12 0
BBX 9 13 1 0
BITMAP
E000
E000
E000
E000
EF00
FF80
F380
E380
E380
E380
E380
E380
E380
ENDCHAR
STARTCHAR 105
ENCODING 105
SWIDTH 864 0
DWIDTH 12 0
BBX 7 13 2 0
BITMAP
38
38
38
00
78
78
38
38
38
38
38
FE
FE
ENDCHAR
STARTCHAR 106
ENCODING 106
SWIDTH 864 0
DWIDTH 12 0
BBX 8 16 2 -3
BITMAP
07
07
07
00
3F
3F
07
07
07
07
07
E7
E7
E7
7F
3E
ENDCHAR
STARTCHAR 107
ENCODING 107
SWIDTH 864 0
DWIDTH 12 0
BBX 10 13 1 0
BITMAP
E000
E000
E080
E180
E380
E700
EE00
FC00
FC00
EE00
E700
E380
E1C0
ENDCHAR
STARTCHAR 108
ENCODING 108
SWIDTH 864 0
DWIDTH 12 0
BBX 7 13 2 0
BITMAP
78
78
38
38
38
38
38
38
38
38
38
FE
FE
ENDCHAR
STARTCHAR 109
ENCODING 109
SWIDTH 864 0
DWIDTH 12 0
BBX 10 9 1 0
BITMAP
7380
FFC0
FFC0
EDC0
EDC0
EDC0
EDC0
EDC0
EDC0
ENDCHAR
STARTCHAR 110
ENCODING 110
SWIDTH 864 0
DWIDTH 12 0
BBX 9 9 1 0
BITMAP
EF00
FF80
E380
E380
E380
E380
E380
E380
E380
ENDCHAR
STARTCHAR 111
ENCODING 111
SWIDTH 864 0
DWIDTH 12 0
BBX 9 9 1 0
BITMAP
3E00
7F00
F780
E380
E380
E380
F780
7F00
3E00
ENDCHAR
STARTCHAR 112
ENCODING 112
SWIDTH 864 0
DWIDTH 12 0
BBX 9 12 1 -3
BITMAP
EF00
FF80
E380
E380
E380
E380
F380
FF80
EF00
E000
E000
E000
ENDCHAR
STARTCHAR 113
ENCODING 113
SWIDTH 864 0
DWIDTH 12 0
BBX 9 12 1 -3
BITMAP
7B80
FF80
E380
E380
E380
E380
E780
FF80
7B80
0380
0380
0380
ENDCHAR
STARTCHAR 114
ENCODING 114
SWIDTH 864 0
DWIDTH 12 0
BBX 8 9 2 0
BITMAP
EE
FF
F7
E7
E0
E0
E0
E0
E0
ENDCHAR
STARTCHAR 115
ENCODING 115
SWIDTH 864 0
DWIDTH 12 0
BBX 9 9 1 0
BITMAP
7F00
FF80
E380
FC00
7F00
1F80
E380
FF80
7F00
ENDCHAR
STARTCHAR 116
ENCODING 116
SWIDTH 864 0
DWIDTH 12 0
BBX 8 12 2 0
BITMAP
38
38
38
FE
FE
38
38
38
38
38
3F
1F
ENDCHAR
STARTCHAR 117
ENCODING 117
SWIDTH 864 0
DWIDTH 12 0
BBX 9 9 1 0
BITMAP
E380
E380
E380
E380
E380
E380
E380
FF80
7B80
ENDCHAR
STARTCHAR 118
ENCODING 118
SWIDTH 864 0
DWIDTH 12 0
BBX 9 9 1 0
BITMAP
E380
E380
E380
7700
7700
3E00
3E00
1C00
0800
ENDCHAR
STARTCHAR 119
ENCODING 119
SWIDTH 864 0
DWIDTH 12 0
BBX 10 9 1 0
BITMAP
EDC0
EDC0
EDC0
EDC0
EDC0
FFC0
FFC0
F3C0
6180
ENDCHAR
STARTCHAR 120
ENCODING 120
SWIDTH 864 0
DWIDTH 12 0
BBX 9 9 1 0
BITMAP
E380
F780
7F00
3E00
1C00
3E00
7F00
F780
E380
ENDCHAR
STARTCHAR 121
ENCODING 121
SWIDTH 864 0
DWIDTH 12 0
BBX 9 12 1 -3
BITMAP
E380
E380
E380
E380
E380
E780
FF80
7B80
0380
0380
FF80
FF00
ENDCHAR
STARTCHAR 122
ENCODING 122
SWIDTH 864 0
DWIDTH 12 0
BBX 9 9 1 0
BITMAP
FF80
FF80
0F00
1E00
3C00
7800
F000
FF80
FF80
ENDCHAR
STARTCHAR 123
ENCODING 123
SWIDTH 864 0
DWIDTH 12 0
BBX 7 14 2 -1
BITMAP
3E
7E
70
70
70
70
E0
E0
70
70
70
70
7E
3E
ENDCHAR
STARTCHAR 124
ENCODING 124
SWIDTH 864 0
DWIDTH 12 0
BBX 3 15 4 -1
BITMAP
60
E0
E0
E0
E0
E0
E0
E0
E0
E0
E0
E0
E0
E0
C0
ENDCHAR
STARTCHAR 125
ENCODING 125
SWIDTH 864 0
DWIDTH 12 0
BBX 7 14 3 -1
BITMAP
F8
FC
1C
1C
1C
1C
0E
0E
1C
1C
1C
1C
FC
F8
ENDCHAR
STARTCHAR 126
ENCODING 126
SWIDTH 864 0
DWIDTH 12 0
BBX 10 6 1 3
BITMAP
3840
7CC0
FFC0
FFC0
CF80
8700
ENDCHAR
STARTCHAR 127
ENCODING 127
SWIDTH 864 0
DWIDTH 12 0
BBX 12 17 0 -3
BITMAP
FDF0
FDF0
FDF0
0000
EFF0
EFF0
EFF0
EFF0
0000
FDF0
FDF0
FDF0
0000
EFF0
EFF0
EFF0
EFF0
ENDCHAR
STARTCHAR 128
ENCODING 128
SWIDTH 864 0
DWIDTH 12 0
BBX 12 17 0 -3
BITMAP
FDF0
FDF0
FDF0
0000
EFF0
EFF0
EFF0
EFF0
0000
FDF0
FDF0
FDF0
0000
EFF0
EFF0
EFF0
EFF0
ENDCHAR
STARTCHAR 129
ENCODING 129
SWIDTH 864 0
DWIDTH 12 0
BBX 0 0 0 0
BITMAP
ENDCHAR
STARTCHAR 130
ENCODING 130
SWIDTH 864 0
DWIDTH 12 0
BBX 0 0 0 0
BITMAP
ENDCHAR
STARTCHAR 131
ENCODING 131
SWIDTH 864 0
DWIDTH 12 0
BBX 0 0 0 0
BITMAP
ENDCHAR
STARTCHAR 132
ENCODING 132
SWIDTH 864 0
DWIDTH 12 0
BBX 0 0 0 0
BITMAP
ENDCHAR
STARTCHAR 133
ENCODING 133
SWIDTH 864 0
DWIDTH 12 0
BBX 0 0 0 0
BITMAP
ENDCHAR
STARTCHAR 134
ENCODING 134
SWIDTH 864 0
DWIDTH 12 0
BBX 0 0 0 0
BITMAP
ENDCHAR
STARTCHAR 135
ENCODING 135
SWIDTH 864 0
DWIDTH 12 0
BBX 0 0 0 0
BITMAP
ENDCHAR
STARTCHAR 136
ENCODING 136
SWIDTH 864 0
DWIDTH 12 0
BBX 0 0 0 0
BITMAP
ENDCHAR
STARTCHAR 137
ENCODING 137
SWIDTH 864 0
DWIDTH 12 0
BBX 0 0 0 0
BITMAP
ENDCHAR
STARTCHAR 138
ENCODING 138
SWIDTH 864 0
DWIDTH 12 0
BBX 0 0 0 0
BITMAP
ENDCHAR
STARTCHAR 139
ENCODING 139
SWIDTH 864 0
DWIDTH 12 0
BBX 0 0 0 0
BITMAP
ENDCHAR
STARTCHAR 140
ENCODING 140
SWIDTH 864 0
DWIDTH 12 0
BBX 0 0 0 0
BITMAP
ENDCHAR
STARTCHAR 141
ENCODING 141
SWIDTH 864 0
DWIDTH 12 0
BBX 0 0 0 0
BITMAP
ENDCHAR
STARTCHAR 142
ENCODING 142
SWIDTH 864 0
DWIDTH 12 0
BBX 0 0 0 0
BITMAP
ENDCHAR
STARTCHAR 143
ENCODING 143
SWIDTH 864 0
DWIDTH 12 0
BBX 0 0 0 0
BITMAP
ENDCHAR
STARTCHAR 144
ENCODING 144
SWIDTH 864 0
DWIDTH 12 0
BBX 0 0 0 0
BITMAP
ENDCHAR
STARTCHAR 145
ENCODING 145
SWIDTH 864 0
DWIDTH 12 0
BBX 0 0 0 0
BITMAP
ENDCHAR
STARTCHAR 146
ENCODING 146
SWIDTH 864 0
DWIDTH 12 0
BBX 0 0 0 0
BITMAP
ENDCHAR
STARTCHAR 147
ENCODING 147
SWIDTH 864 0
DWIDTH 12 0
BBX 0 0 0 0
BITMAP
ENDCHAR
STARTCHAR 148
ENCODING 148
SWIDTH 864 0
DWIDTH 12 0
BBX 0 0 0 0
BITMAP
ENDCHAR
STARTCHAR 149
ENCODING 149
SWIDTH 864 0
DWIDTH 12 0
BBX 0 0 0 0
BITMAP
ENDCHAR
STARTCHAR 150
ENCODING 150
SWIDTH 864 0
DWIDTH 12 0
BBX 0 0 0 0
BITMAP
ENDCHAR
STARTCHAR 151
ENCODING 151
SWIDTH 864 0
DWIDTH 12 0
BBX 0 0 0 0
BITMAP
ENDCHAR
STARTCHAR 152
ENCODING 152
SWIDTH 864 0
DWIDTH 12 0
BBX 0 0 0 0
BITMAP
ENDCHAR
STARTCHAR 153
ENCODING 153
SWIDTH 864 0
DWIDTH 12 0
BBX 0 0 0 0
BITMAP
ENDCHAR
STARTCHAR 154
ENCODING 154
SWIDTH 864 0
DWIDTH 12 0
BBX 0 0 0 0
BITMAP
ENDCHAR
STARTCHAR 155
ENCODING 155
SWIDTH 864 0
DWIDTH 12 0
BBX 0 0 0 0
BITMAP
ENDCHAR
STARTCHAR 156
ENCODING 156
SWIDTH 864 0
DWIDTH 12 0
BBX 0 0 0 0
BITMAP
ENDCHAR
STARTCHAR 157
ENCODING 157
SWIDTH 864 0
DWIDTH 12 0
BBX 0 0 0 0
BITMAP
ENDCHAR
STARTCHAR 158
ENCODING 158
SWIDTH 864 0
DWIDTH 12 0
BBX 0 0 0 0
BITMAP
ENDCHAR
STARTCHAR 159
ENCODING 159
SWIDTH 864 0
DWIDTH 12 0
BBX 0 0 0 0
BITMAP
ENDCHAR
STARTCHAR 160
ENCODING 160
SWIDTH 864 0
DWIDTH 12 0
BBX 0 0 0 0
BITMAP
ENDCHAR
STARTCHAR 161
ENCODING 161
SWIDTH 864 0
DWIDTH 12 0
BBX 0 0 0 0
BITMAP
ENDCHAR
STARTCHAR 162
ENCODING 162
SWIDTH 864 0
DWIDTH 12 0
BBX 0 0 0 0
BITMAP
ENDCHAR
STARTCHAR 163
ENCODING 163
SWIDTH 864 0
DWIDTH 12 0
BBX 0 0 0 0
BITMAP
ENDCHAR
STARTCHAR 164
ENCODING 164
SWIDTH 864 0
DWIDTH 12 0
BBX 0 0 0 0
BITMAP
ENDCHAR
STARTCHAR 165
ENCODING 165
SWIDTH 864 0
DWIDTH 12 0
BBX 0 0 0 0
BITMAP
ENDCHAR
STARTCHAR 166
ENCODING 166
SWIDTH 864 0
DWIDTH 12 0
BBX 0 0 0 0
BITMAP
ENDCHAR
STARTCHAR 167
ENCODING 167
SWIDTH 864 0
DWIDTH 12 0
BBX 0 0 0 0
BITMAP
ENDCHAR
STARTCHAR 168
ENCODING 168
SWIDTH 864 0
DWIDTH 12 0
BBX 0 0 0 0
BITMAP
ENDCHAR
STARTCHAR 169
ENCODING 169
SWIDTH 864 0
DWIDTH 12 0
BBX 0 0 0 0
BITMAP
ENDCHAR
STARTCHAR 170
ENCODING 170
SWIDTH 864 0
DWIDTH 12 0
BBX 0 0 0 0
BITMAP
ENDCHAR
STARTCHAR 171
ENCODING 171
SWIDTH 864 0
DWIDTH 12 0
BBX 0 0 0 0
BITMAP
ENDCHAR
STARTCHAR 172
ENCODING 172
SWIDTH 864 0
DWIDTH 12 0
BBX 0 0 0 0
BITMAP
ENDCHAR
STARTCHAR 173
ENCODING 173
SWIDTH 864 0
DWIDTH 12 0
BBX 0 0 0 0
BITMAP
ENDCHAR
STARTCHAR 174
ENCODING 174
SWIDTH 864 0
DWIDTH 12 0
BBX 0 0 0 0
BITMAP
ENDCHAR
STARTCHAR 175
ENCODING 175
SWIDTH 864 0
DWIDTH 12 0
BBX 0 0 0 0
BITMAP
ENDCHAR
STARTCHAR 176
ENCODING 176
SWIDTH 864 0
DWIDTH 12 0
BBX 0 0 0 0
BITMAP
ENDCHAR
STARTCHAR 177
ENCODING 177
SWIDTH 864 0
DWIDTH 12 0
BBX 0 0 0 0
BITMAP
ENDCHAR
STARTCHAR 178
ENCODING 178
SWIDTH 864 0
DWIDTH 12 0
BBX 0 0 0 0
BITMAP
ENDCHAR
STARTCHAR 179
ENCODING 179
SWIDTH 864 0
DWIDTH 12 0
BBX 0 0 0 0
BITMAP
ENDCHAR
STARTCHAR 180
ENCODING 180
SWIDTH 864 0
DWIDTH 12 0
BBX 0 0 0 0
BITMAP
ENDCHAR
STARTCHAR 181
ENCODING 181
SWIDTH 864 0
DWIDTH 12 0
BBX 0 0 0 0
BITMAP
ENDCHAR
STARTCHAR 182
ENCODING 182
SWIDTH 864 0
DWIDTH 12 0
BBX 0 0 0 0
BITMAP
ENDCHAR
STARTCHAR 183
ENCODING 183
SWIDTH 864 0
DWIDTH 12 0
BBX 0 0 0 0
BITMAP
ENDCHAR
STARTCHAR 184
ENCODING 184
SWIDTH 864 0
DWIDTH 12 0
BBX 0 0 0 0
BITMAP
ENDCHAR
STARTCHAR 185
ENCODING 185
SWIDTH 864 0
DWIDTH 12 0
BBX 0 0 0 0
BITMAP
ENDCHAR
STARTCHAR 186
ENCODING 186
SWIDTH 864 0
DWIDTH 12 0
BBX 0 0 0 0
BITMAP
ENDCHAR
STARTCHAR 187
ENCODING 187
SWIDTH 864 0
DWIDTH 12 0
BBX 0 0 0 0
BITMAP
ENDCHAR
STARTCHAR 188
ENCODING 188
SWIDTH 864 0
DWIDTH 12 0
BBX 0 0 0 0
BITMAP
ENDCHAR
STARTCHAR 189
ENCODING 189
SWIDTH 864 0
DWIDTH 12 0
BBX 0 0 0 0
BITMAP
ENDCHAR
STARTCHAR 190
ENCODING 190
SWIDTH 864 0
DWIDTH 12 0
BBX 0 0 0 0
BITMAP
ENDCHAR
STARTCHAR 191
ENCODING 191
SWIDTH 864 0
DWIDTH 12 0
BBX 0 0 0 0
BITMAP
ENDCHAR
STARTCHAR 192
ENCODING 192
SWIDTH 864 0
DWIDTH 12 0
BBX 0 0 0 0
BITMAP
ENDCHAR
STARTCHAR 193
ENCODING 193
SWIDTH 864 0
DWIDTH 12 0
BBX 0 0 0 0
BITMAP
ENDCHAR
STARTCHAR 194
ENCODING 194
SWIDTH 864 0
DWIDTH 12 0
BBX 0 0 0 0
BITMAP
ENDCHAR
STARTCHAR 195
ENCODING 195
SWIDTH 864 0
DWIDTH 12 0
BBX 0 0 0 0
BITMAP
ENDCHAR
STARTCHAR 196
ENCODING 196
SWIDTH 864 0
DWIDTH 12 0
BBX 0 0 0 0
BITMAP
ENDCHAR
STARTCHAR 197
ENCODING 197
SWIDTH 864 0
DWIDTH 12 0
BBX 0 0 0 0
BITMAP
ENDCHAR
STARTCHAR 198
ENCODING 198
SWIDTH 864 0
DWIDTH 12 0
BBX 0 0 0 0
BITMAP
ENDCHAR
STARTCHAR 199
ENCODING 199
SWIDTH 864 0
DWIDTH 12 0
BBX 0 0 0 0
BITMAP
ENDCHAR
STARTCHAR 200
ENCODING 200
SWIDTH 864 0
DWIDTH 12 0
BBX 0 0 0 0
BITMAP
ENDCHAR
STARTCHAR 201
ENCODING 201
SWIDTH 864 0
DWIDTH 12 0
BBX 8 14 2 -1
BITMAP
50
A8
50
A8
50
00
00
00
00
0A
15
0A
15
0A
ENDCHAR
STARTCHAR 202
ENCODING 202
SWIDTH 864 0
DWIDTH 12 0
BBX 8 14 2 -1
BITMAP
50
B8
78
F8
70
00
00
00
00
0A
17
0F
1F
0E
ENDCHAR
STARTCHAR 203
ENCODING 203
SWIDTH 864 0
DWIDTH 12 0
BBX 8 14 2 -1
BITMAP
70
98
F8
F8
70
00
00
00
00
0E
19
1F
1F
0E
ENDCHAR
STARTCHAR 204
ENCODING 204
SWIDTH 864 0
DWIDTH 12 0
BBX 10 16 1 -2
BITMAP
1200
5400
2800
AA00
5400
5480
2800
0000
0000
1200
0A80
0500
1540
0A80
4A80
0500
ENDCHAR
STARTCHAR 205
ENCODING 205
SWIDTH 864 0
DWIDTH 12 0
BBX 10 16 1 -2
BITMAP
2800
3900
3A00
9200
5400
5480
2800
0000
0000
0500
2700
1700
1240
0A80
4A80
0500
ENDCHAR
STARTCHAR 206
ENCODING 206
SWIDTH 864 0
DWIDTH 12 0
BBX 8 14 2 -1
BITMAP
A8
50
F8
50
A8
00
00
00
00
0A
15
0E
15
0A
ENDCHAR
STARTCHAR 207
ENCODING 207
SWIDTH 864 0
DWIDTH 12 0
BBX 10 15 1 -1
BITMAP
5000
A800
5900
9F00
1F00
0E00
0000
0000
0000
1400
2A00
1640
27C0
07C0
0380
ENDCHAR
STARTCHAR 208
ENCODING 208
SWIDTH 864 0
DWIDTH 12 0
BBX 11 17 0 -3
BITMAP
7FC0
FFE0
AAA0
5540
AAA0
5540
0000
0000
0000
0000
0000
5540
AAA0
5540
AAA0
FFE0
7FC0
ENDCHAR
STARTCHAR 209
ENCODING 209
SWIDTH 864 0
DWIDTH 12 0
BBX 12 17 0 -3
BITMAP
FDF0
FD70
FDF0
0000
EFF0
AFF0
EFF0
EFF0
0000
FDF0
FD70
FDF0
0000
EFF0
AFF0
EFF0
EFF0
ENDCHAR
STARTCHAR 210
ENCODING 210
SWIDTH 864 0
DWIDTH 12 0
BBX 12 17 0 -3
BITMAP
FDF0
F770
FDF0
0000
EFF0
BBF0
EFF0
EFF0
0000
FDF0
F770
FDF0
0000
EFF0
BBF0
EFF0
EFF0
ENDCHAR
STARTCHAR 211
ENCODING 211
SWIDTH 864 0
DWIDTH 12 0
BBX 12 17 0 -3
BITMAP
F0F0
EF70
D0B0
2040
B0D0
BFD0
9F90
AF50
30C0
BFD0
DFB0
EF70
0000
EFF0
EFF0
EFF0
EFF0
ENDCHAR
STARTCHAR 212
ENCODING 212
SWIDTH 864 0
DWIDTH 12 0
BBX 12 17 0 -3
BITMAP
0C00
1E00
3B00
3D00
7F80
7C80
FB40
B780
EDC0
EBC0
5BE0
1FE0
3FF0
3FD0
7FF0
7FF0
2AA0
ENDCHAR
STARTCHAR 213
ENCODING 213
SWIDTH 864 0
DWIDTH 12 0
BBX 10 17 1 -3
BITMAP
2500
5A80
2F40
BB80
7F40
EF80
7D40
BFC0
7D80
FF40
2F80
FB40
5E80
2D00
0C00
0C00
0C00
ENDCHAR
STARTCHAR 214
ENCODING 214
SWIDTH 864 0
DWIDTH 12 0
BBX 10 15 1 -3
BITMAP
0400
4140
1080
0400
2A80
5D00
7740
BE80
7D40
AF80
7B40
5E80
2D00
0C00
0C00
ENDCHAR
STARTCHAR 215
ENCODING 215
SWIDTH 864 0
DWIDTH 12 0
BBX 10 17 1 -3
BITMAP
0140
0880
0A00
5480
2D00
1A40
ED80
0E40
FD00
2CC0
4E00
1D80
6D00
0C00
0C00
0C00
0C00
ENDCHAR
STARTCHAR 216
ENCODING 216
SWIDTH 864 0
DWIDTH 12 0
BBX 12 18 0 -3
BITMAP
2210
4460
4980
2A40
1420
D590
2A40
2A40
14A0
6200
9930
2540
4280
9AB0
2540
2540
5280
9000
ENDCHAR
STARTCHAR 217
ENCODING 217
SWIDTH 864 0
DWIDTH 12 0
BBX 12 18 0 -3
BITMAP
4420
2840
A880
5550
1220
0A40
CF90
2760
3E80
CF10
2E20
1D40
24A0
CA90
1140
1140
6220
8210
ENDCHAR
STARTCHAR 218
ENCODING 218
SWIDTH 864 0
DWIDTH 12 0
BBX 12 17 0 -3
BITMAP
FFF0
FFF0
DFB0
FFF0
F9F0
F9F0
F9F0
C030
C030
C030
F9F0
F9F0
F9F0
FFF0
DFB0
FFF0
FFF0
ENDCHAR
STARTCHAR 219
ENCODING 219
SWIDTH 864 0
DWIDTH 12 0
BBX 5 17 1 -3
BITMAP
E0
E0
A0
E0
E0
E0
E0
F8
F8
F8
E0
E0
E0
E0
A0
E0
E0
ENDCHAR
STARTCHAR 220
ENCODING 220
SWIDTH 864 0
DWIDTH 12 0
BBX 12 17 0 -3
BITMAP
FFF0
DFB0
E970
E070
C030
C030
8010
8010
8010
8610
8010
8F10
8010
9F90
8010
BFD0
8010
ENDCHAR
STARTCHAR 221
ENCODING 221
SWIDTH 864 0
DWIDTH 12 0
BBX 12 17 0 -3
BITMAP
FFF0
DFB0
E970
E070
C030
C030
8010
8010
8010
BFD0
8010
9F90
8010
8F10
8010
8610
8010
ENDCHAR
STARTCHAR 222
ENCODING 222
SWIDTH 864 0
DWIDTH 12 0
BBX 12 17 0 -3
BITMAP
FFF0
DFB0
E970
E070
C030
CD30
9090
8010
A050
0000
A050
0000
A050
8010
9090
8B10
8010
ENDCHAR
STARTCHAR 223
ENCODING 223
SWIDTH 864 0
DWIDTH 12 0
BBX 11 12 0 -3
BITMAP
FFC0
7FE0
38E0
F8E0
78E0
38E0
3FE0
3BC0
3800
3800
3800
3800
ENDCHAR
STARTCHAR 224
ENCODING 224
SWIDTH 864 0
DWIDTH 12 0
BBX 10 13 1 0
BITMAP
8040
C0C0
EDC0
EDC0
EDC0
EDC0
BF40
B340
AD40
9E40
B340
E1C0
C0C0
ENDCHAR
STARTCHAR 225
ENCODING 225
SWIDTH 864 0
DWIDTH 12 0
BBX 9 13 1 0
BITMAP
FF80
FF80
C380
8780
0E80
1D00
3A00
7400
E800
D080
E180
FF80
FF80
ENDCHAR
STARTCHAR 226
ENCODING 226
SWIDTH 864 0
DWIDTH 12 0
BBX 11 13 0 0
BITMAP
FF80
7FC0
39E0
F8E0
78E0
38E0
F8E0
78E0
38E0
38E0
39E0
3FC0
3F80
ENDCHAR
STARTCHAR 227
ENCODING 227
SWIDTH 864 0
DWIDTH 12 0
BBX 11 13 0 0
BITMAP
FF80
7FC0
59E0
58E0
58E0
58E0
58E0
58E0
58E0
58E0
59E0
7FC0
FF80
ENDCHAR
STARTCHAR 228
ENCODING 228
SWIDTH 864 0
DWIDTH 12 0
BBX 0 0 0 0
BITMAP
ENDCHAR
STARTCHAR 229
ENCODING 229
SWIDTH 864 0
DWIDTH 12 0
BBX 0 0 0 0
BITMAP
ENDCHAR
STARTCHAR 230
ENCODING 230
SWIDTH 864 0
DWIDTH 12 0
BBX 0 0 0 0
BITMAP
ENDCHAR
STARTCHAR 231
ENCODING 231
SWIDTH 864 0
DWIDTH 12 0
BBX 0 0 0 0
BITMAP
ENDCHAR
STARTCHAR 232
ENCODING 232
SWIDTH 864 0
DWIDTH 12 0
BBX 0 0 0 0
BITMAP
ENDCHAR
STARTCHAR 233
ENCODING 233
SWIDTH 864 0
DWIDTH 12 0
BBX 0 0 0 0
BITMAP
ENDCHAR
STARTCHAR 234
ENCODING 234
SWIDTH 864 0
DWIDTH 12 0
BBX 0 0 0 0
BITMAP
ENDCHAR
STARTCHAR 235
ENCODING 235
SWIDTH 864 0
DWIDTH 12 0
BBX 0 0 0 0
BITMAP
ENDCHAR
STARTCHAR 236
ENCODING 236
SWIDTH 864 0
DWIDTH 12 0
BBX 0 0 0 0
BITMAP
ENDCHAR
STARTCHAR 237
ENCODING 237
SWIDTH 864 0
DWIDTH 12 0
BBX 0 0 0 0
BITMAP
ENDCHAR
STARTCHAR 238
ENCODING 238
SWIDTH 864 0
DWIDTH 12 0
BBX 0 0 0 0
BITMAP
ENDCHAR
STARTCHAR 239
ENCODING 239
SWIDTH 864 0
DWIDTH 12 0
BBX 0 0 0 0
BITMAP
ENDCHAR
STARTCHAR 240
ENCODING 240
SWIDTH 864 0
DWIDTH 12 0
BBX 0 0 0 0
BITMAP
ENDCHAR
STARTCHAR 241
ENCODING 241
SWIDTH 864 0
DWIDTH 12 0
BBX 0 0 0 0
BITMAP
ENDCHAR
STARTCHAR 242
ENCODING 242
SWIDTH 864 0
DWIDTH 12 0
BBX 0 0 0 0
BITMAP
ENDCHAR
STARTCHAR 243
ENCODING 243
SWIDTH 864 0
DWIDTH 12 0
BBX 0 0 0 0
BITMAP
ENDCHAR
STARTCHAR 244
ENCODING 244
SWIDTH 864 0
DWIDTH 12 0
BBX 0 0 0 0
BITMAP
ENDCHAR
STARTCHAR 245
ENCODING 245
SWIDTH 864 0
DWIDTH 12 0
BBX 0 0 0 0
BITMAP
ENDCHAR
STARTCHAR 246
ENCODING 246
SWIDTH 864 0
DWIDTH 12 0
BBX 0 0 0 0
BITMAP
ENDCHAR
STARTCHAR 247
ENCODING 247
SWIDTH 864 0
DWIDTH 12 0
BBX 0 0 0 0
BITMAP
ENDCHAR
STARTCHAR 248
ENCODING 248
SWIDTH 864 0
DWIDTH 12 0
BBX 0 0 0 0
BITMAP
ENDCHAR
STARTCHAR 249
ENCODING 249
SWIDTH 864 0
DWIDTH 12 0
BBX 0 0 0 0
BITMAP
ENDCHAR
STARTCHAR 250
ENCODING 250
SWIDTH 864 0
DWIDTH 12 0
BBX 0 0 0 0
BITMAP
ENDCHAR
STARTCHAR 251
ENCODING 251
SWIDTH 864 0
DWIDTH 12 0
BBX 0 0 0 0
BITMAP
ENDCHAR
STARTCHAR 252
ENCODING 252
SWIDTH 864 0
DWIDTH 12 0
BBX 0 0 0 0
BITMAP
ENDCHAR
STARTCHAR 253
ENCODING 253
SWIDTH 864 0
DWIDTH 12 0
BBX 0 0 0 0
BITMAP
ENDCHAR
STARTCHAR 254
ENCODING 254
SWIDTH 864 0
DWIDTH 12 0
BBX 0 0 0 0
BITMAP
ENDCHAR
STARTCHAR 255
ENCODING 255
SWIDTH 864 0
DWIDTH 12 0
BBX 0 0 0 0
BITMAP
ENDCHAR
ENDFONT
